<?xml version="1.0" encoding="UTF-8"?>
<svg xmlns:rdf="http://www.w3.org/1999/02/22-rdf-syntax-ns#" xmlns="http://www.w3.org/2000/svg" xmlns:cc="http://web.resource.org/cc/" xmlns:xlink="http://www.w3.org/1999/xlink" xmlns:dc="http://purl.org/dc/elements/1.1/" xmlns:svg="http://www.w3.org/2000/svg" xmlns:inkscape="http://www.inkscape.org/namespaces/inkscape" xmlns:sodipodi="http://sodipodi.sourceforge.net/DTD/sodipodi-0.dtd" xmlns:ns1="http://sozi.baierouge.fr" viewBox="0 0 213 214">
  <path d="m0 0v214h213v-214h-213z" fill="#fff"/>
  <path d="m103 40v1c8.7 0 19.47-1.97 27 3l1-4h-28z" fill="#979797"/>
  <path d="m100 41l-17 66c5.71 2.56 18.49 0.68 22.4 4.6 3.84 3.85 0 12.95-0.89 17.4-2.68 13.42-6.239 28.32-4.51 42l8.75-18 14.37-41 4.88-13-22 1 23-58-29-1z" fill="#070707"/>
  <path d="m99 42l-3 11h1l2-11z" fill="#cdcdcd"/>
  <path d="m97 51l-1 6h1v-6z" fill="#636363"/>
  <path d="m91 70l-1 9h1v-9z" fill="#373737"/>
  <path d="m117 72l-1 3 1-3z" fill="#979797"/>
  <path d="m115.33 75.667l0.34 0.666-0.34-0.666z" fill="#636363"/>
  <path d="m88 78v5h1l1-5h-2z" fill="#979797"/>
  <path d="m109 91l-3 9 23 1 1-5h-21v-5z" fill="#cdcdcd"/>
  <path d="m83 98l-2 13h10v-1l-8-3v-9z" fill="#373737"/>
  <path d="m125 107l-2 7h1l1-7m-43 4v1l24-1h-24z" fill="#636363"/>
  <path d="m100 113h6v7h1v-9l-7 2m22 1v3h1l-1-3z" fill="#979797"/>
  <path d="m121 117l-5 17h1c2.17-4.88 5.89-11.67 4-17z" fill="#cdcdcd"/>
  <path d="m105 121l-1 8h1v-8z" fill="#979797"/>
  <path d="m103 134l-1 13h1v-13z" fill="#636363"/>
  <path d="m98 165l-2 14h1l1-14z" fill="#979797"/>
  <path d="m99 167l-4 20h1l6-17-3-3z" fill="#636363"/>
  <metadata>
    <rdf:RDF>
      <cc:Work>
        <dc:format>image/svg+xml</dc:format>
        <dc:type rdf:resource="http://purl.org/dc/dcmitype/StillImage"/>
        <cc:license rdf:resource="http://creativecommons.org/licenses/publicdomain/"/>
        <dc:publisher>
          <cc:Agent rdf:about="http://openclipart.org/">
            <dc:title>Openclipart</dc:title>
          </cc:Agent>
        </dc:publisher>
        <dc:title>Electrical Icon</dc:title>
        <dc:date>2013-10-22T13:06:16</dc:date>
        <dc:description>An electrical icon symbol </dc:description>
        <dc:source>https://openclipart.org/detail/185342/electrical-icon-by-rejon-185342</dc:source>
        <dc:creator>
          <cc:Agent>
            <dc:title>rejon</dc:title>
          </cc:Agent>
        </dc:creator>
        <dc:subject>
          <rdf:Bag>
            <rdf:li>electrical</rdf:li>
            <rdf:li>icon</rdf:li>
            <rdf:li>symbol</rdf:li>
            <rdf:li>upload2openclipart</rdf:li>
            <rdf:li>vectorized</rdf:li>
          </rdf:Bag>
        </dc:subject>
      </cc:Work>
      <cc:License rdf:about="http://creativecommons.org/licenses/publicdomain/">
        <cc:permits rdf:resource="http://creativecommons.org/ns#Reproduction"/>
        <cc:permits rdf:resource="http://creativecommons.org/ns#Distribution"/>
        <cc:permits rdf:resource="http://creativecommons.org/ns#DerivativeWorks"/>
      </cc:License>
    </rdf:RDF>
  </metadata>
</svg>